<?xml version="1.0" encoding="utf-8"?><svg width="100" height="100" viewBox="0 0 100 100" xmlns="http://www.w3.org/2000/svg" xmlns:xlink="http://www.w3.org/1999/xlink"><svg viewBox="0 0 48 48" width="50" height="50" id="icons8-Symfony" xmlns="http://www.w3.org/2000/svg"><path d="M24.072 4.072c-11.046 0-20 8.954-20 20s8.954 20 20 20 20-8.954 20-20-8.954-20-20-20zm11.344 11.25c-.971.034-1.673-.538-1.673-1.408 0-.723.453-1.191.448-1.374-.019-.547-.86-.569-1.089-.557-3.15.101-3.877 4.096-4.549 7.505l-.262 1.424c1.814.262 3.102-.06 3.821-.52 1.012-.647-.14-1.193-.119-1.948.026-.951.888-1.399 1.438-1.415.77-.018 1.566.816 1.566 1.897 0 1.321-2.133 3.22-5.69 3.144-.434-.01-.831-.04-1.205-.083l-.706 3.803c-.601 2.766-1.4 6.546-4.256 9.844-2.453 2.876-4.943 3.324-6.059 3.36-2.086.071-3.992-1.212-4.041-2.675-.048-1.419 1.161-2.351 1.997-2.351 1.221 0 1.928.888 1.959 1.807.028.775-.383 1.017-.654 1.163-.182.144-.456.29-.446.61.007.137.156.451.619.436.882-.03 1.775-.254 2.446-.737 2.032-1.67 2.782-4.403 3.807-9.701l.215-1.283c.349-1.724.9-4.08 1.491-5.993-1.433-1.064-2.26-2.337-4.187-2.852-1.321-.353-1.918-.24-2.484.466-.301.375-.405.801-.405 1.215 0 1.59 3.099 4.722 3.099 6.62 0 .224-.026.454-.068.694-.428 2.498-3.446 4.415-7.014 3.333-3.045-.927-3.713-3.079-3.346-4.252.322-1.03 1.291-1.377 2.104-1.132.87.265 1.25 1.368.921 2.29-.03.083-.042.114-.134.306-.101.22-.288.414-.369.672-.197.628.678 1.074 1.287 1.26 1.363.414 2.691-.289 3.03-1.376.312-.999-.14-1.696-.407-1.964 0 0-2.527-3.272-2.527-5.082 0-.395.037-.808.169-1.23.245-.781.758-1.612 1.505-2.162 1.575-1.158 3.132-1.302 4.764-.84 2.11.6 3.093 1.93 4.408 2.993.736-2.128 1.539-3.637 3.074-5.394 1.384-1.603 3.247-2.762 5.378-2.836 2.13-.068 3.676.892 3.73 2.4.023.643-.287 1.881-1.586 1.923z" fill="#455a64"/></svg><svg viewBox="0 0 80 80" width="50" height="50" id="icons8-apple-app-store" x="50" xmlns="http://www.w3.org/2000/svg"><path style="line-height:normal;text-indent:0;text-align:start;text-decoration-line:none;text-decoration-style:solid;text-decoration-color:#000;text-transform:none;block-progression:tb;isolation:auto;mix-blend-mode:normal" d="M40 7C21.786 7 7 21.786 7 40s14.786 33 33 33 33-14.786 33-33S58.214 7 40 7zm0 2c17.133 0 31 13.867 31 31S57.133 71 40 71 9 57.133 9 40 22.867 9 40 9zm0 3a1 1 0 0 0-1 1 1 1 0 0 0 1 1 1 1 0 0 0 1-1 1 1 0 0 0-1-1zm-5.268.52a1 1 0 0 0-1 1 1 1 0 0 0 1 1 1 1 0 0 0 1-1 1 1 0 0 0-1-1zm10.536 0a1 1 0 0 0-1 1 1 1 0 0 0 1 1 1 1 0 0 0 1-1 1 1 0 0 0-1-1zm-15.6 1.535a1 1 0 0 0-1 1 1 1 0 0 0 1 1 1 1 0 0 0 1-1 1 1 0 0 0-1-1zm20.664 0a1 1 0 0 0-1 1 1 1 0 0 0 1 1 1 1 0 0 0 1-1 1 1 0 0 0-1-1zM25 16.55a1 1 0 0 0-1 1 1 1 0 0 0 1 1 1 1 0 0 0 1-1 1 1 0 0 0-1-1zm30 0a1 1 0 0 0-1 1 1 1 0 0 0 1 1 1 1 0 0 0 1-1 1 1 0 0 0-1-1zm-34.092 3.357a1 1 0 0 0-1 1 1 1 0 0 0 1 1 1 1 0 0 0 1-1 1 1 0 0 0-1-1zm38.184 0a1 1 0 0 0-1 1 1 1 0 0 0 1 1 1 1 0 0 0 1-1 1 1 0 0 0-1-1zm-17.237.102a1.975 1.975 0 0 0-1.134.261l-1.729 1.01h-.002a2.016 2.016 0 0 0-.719 2.735l12.856 22.039A3.979 3.979 0 0 0 51.535 49c.695 1.204 1.749 1.562 2.715 2.66a37.221 37.221 0 0 1 1.81 2.262l.811 1.113.807-1.117s.872-1.2 1.408-2.887c.536-1.687.76-4.021-.664-6.097a4.46 4.46 0 0 0-1.922-1.579L43.455 20.992v-.002a1.995 1.995 0 0 0-1.22-.918 2.044 2.044 0 0 0-.38-.062zM41.727 22h.002l9.769 16.746-1.728 1.008L40 23.008 41.727 22zM17.55 24a1 1 0 0 0-1 1 1 1 0 0 0 1 1 1 1 0 0 0 1-1 1 1 0 0 0-1-1zm44.898 0a1 1 0 0 0-1 1 1 1 0 0 0 1 1 1 1 0 0 0 1-1 1 1 0 0 0-1-1zM35.87 26.25a2.03 2.03 0 0 0-1.6.982l-.001.004-11.405 20.002-1.002 7.205 6.069-4.177.113-.196 11.41-19.814a2.016 2.016 0 0 0-.719-2.735l-1.73-1.007a1.98 1.98 0 0 0-1.135-.264zm.13 1.99l1.727 1.008v.004l-1.063 1.846-1.72-1.004L36 28.24zm-20.945.428a1 1 0 0 0-1 1 1 1 0 0 0 1 1 1 1 0 0 0 1-1 1 1 0 0 0-1-1zm49.89 0a1 1 0 0 0-1 1 1 1 0 0 0 1 1 1 1 0 0 0 1-1 1 1 0 0 0-1-1zm-30.992 3.164l1.713.998-9.244 16.049-1.951 1.342.324-2.326 9.158-16.063zm-20.433 1.9a1 1 0 0 0-1 1 1 1 0 0 0 1 1 1 1 0 0 0 1-1 1 1 0 0 0-1-1zm52.96 0a1 1 0 0 0-1 1 1 1 0 0 0 1 1 1 1 0 0 0 1-1 1 1 0 0 0-1-1zM19 36v7h3.98l1.141-2H21v-3h4.83l1.14-2H19zm19.455 0l-1.152 2h6.81l-1.166-2h-4.492zm16.066 0l1.166 2H60v3h-2.563l1.167 2H62v-7h-7.479zM13 39a1 1 0 0 0-1 1 1 1 0 0 0 1 1 1 1 0 0 0 1-1 1 1 0 0 0-1-1zm54 0a1 1 0 0 0-1 1 1 1 0 0 0 1 1 1 1 0 0 0 1-1 1 1 0 0 0-1-1zm-14.496 1.475l1.555 2.664c-.36.082-.718.2-1.059.396a3.94 3.94 0 0 0-.713.535l-1.51-2.588 1.727-1.007zM35.576 41l-1.152 2H47.03l-1.168-2H35.576zM13.52 44.268a1 1 0 0 0-1 1 1 1 0 0 0 1 1 1 1 0 0 0 1-1 1 1 0 0 0-1-1zm52.96 0a1 1 0 0 0-1 1 1 1 0 0 0 1 1 1 1 0 0 0 1-1 1 1 0 0 0-1-1zm-11.359.744c.125.011.25.036.371.072.487.144.939.483 1.281.982.978 1.424.837 3.006.407 4.36-.196.617-.297.657-.512 1.058-.35-.448-.437-.597-.918-1.144-1.218-1.384-2.3-2.024-2.482-2.34A1.986 1.986 0 0 1 54 45.268c.362-.21.746-.29 1.121-.256zm-40.066 4.32a1 1 0 0 0-1 1 1 1 0 0 0 1 1 1 1 0 0 0 1-1 1 1 0 0 0-1-1zm49.89 0a1 1 0 0 0-1 1 1 1 0 0 0 1 1 1 1 0 0 0 1-1 1 1 0 0 0-1-1zM17.551 54a1 1 0 0 0-1 1 1 1 0 0 0 1 1 1 1 0 0 0 1-1 1 1 0 0 0-1-1zm44.898 0a1 1 0 0 0-1 1 1 1 0 0 0 1 1 1 1 0 0 0 1-1 1 1 0 0 0-1-1zm-41.54 4.092a1 1 0 0 0-1 1 1 1 0 0 0 1 1 1 1 0 0 0 1-1 1 1 0 0 0-1-1zm38.183 0a1 1 0 0 0-1 1 1 1 0 0 0 1 1 1 1 0 0 0 1-1 1 1 0 0 0-1-1zM25 61.449a1 1 0 0 0-1 1 1 1 0 0 0 1 1 1 1 0 0 0 1-1 1 1 0 0 0-1-1zm30 0a1 1 0 0 0-1 1 1 1 0 0 0 1 1 1 1 0 0 0 1-1 1 1 0 0 0-1-1zm-25.332 2.496a1 1 0 0 0-1 1 1 1 0 0 0 1 1 1 1 0 0 0 1-1 1 1 0 0 0-1-1zm20.664 0a1 1 0 0 0-1 1 1 1 0 0 0 1 1 1 1 0 0 0 1-1 1 1 0 0 0-1-1zm-15.6 1.535a1 1 0 0 0-1 1 1 1 0 0 0 1 1 1 1 0 0 0 1-1 1 1 0 0 0-1-1zm10.536 0a1 1 0 0 0-1 1 1 1 0 0 0 1 1 1 1 0 0 0 1-1 1 1 0 0 0-1-1zM40 66a1 1 0 0 0-1 1 1 1 0 0 0 1 1 1 1 0 0 0 1-1 1 1 0 0 0-1-1z"/></svg><svg viewBox="0 0 24 24" width="50" height="50" id="icons8-buildbox" y="50" xmlns="http://www.w3.org/2000/svg"><path d="M12 1.764L9.383 3.072 12 4.382l2.617-1.31L12 1.764zM7.146 4.19L3.883 5.822 6.5 7.132 9.764 5.5 7.146 4.191zm9.708 0L14.236 5.5 17.5 7.133l2.617-1.31-3.263-1.632zM12 6.617L8.736 8.25 12 9.883l3.264-1.633L12 6.617zm-9 1V17.5L6 19V9.117l-3-1.5zm18 0l-3 1.5V19l3-1.5V7.617zm-13 2.5V20l3 1.5v-9.883l-3-1.5zm8 0l-3 1.5V21.5l3-1.5v-9.883z"/></svg></svg>