<?xml version="1.0"?>
<svg xmlns="http://www.w3.org/2000/svg" viewBox="0 0 24 24" width="100px" height="100px">
    <path d="M 12 1.7636719 L 9.3828125 3.0722656 L 12 4.3828125 L 14.617188 3.0722656 L 12 1.7636719 z M 7.1464844 4.1914062 L 3.8828125 5.8222656 L 6.5 7.1328125 L 9.7636719 5.5 L 7.1464844 4.1914062 z M 16.853516 4.1914062 L 14.236328 5.5 L 17.5 7.1328125 L 20.117188 5.8222656 L 16.853516 4.1914062 z M 12 6.6171875 L 8.7363281 8.25 L 12 9.8828125 L 15.263672 8.25 L 12 6.6171875 z M 3 7.6171875 L 3 17.5 L 6 19 L 6 9.1171875 L 3 7.6171875 z M 21 7.6171875 L 18 9.1171875 L 18 19 L 21 17.5 L 21 7.6171875 z M 8 10.117188 L 8 20 L 11 21.5 L 11 11.617188 L 8 10.117188 z M 16 10.117188 L 13 11.617188 L 13 21.5 L 16 20 L 16 10.117188 z"/>
</svg>
