<?xml version="1.0"?>
<svg xmlns="http://www.w3.org/2000/svg" viewBox="0 0 80 80" width="240px" height="240px">
    <path style="line-height:normal;text-indent:0;text-align:start;text-decoration-line:none;text-decoration-style:solid;text-decoration-color:#000;text-transform:none;block-progression:tb;isolation:auto;mix-blend-mode:normal" d="M 40 7 C 21.786448 7 7 21.786448 7 40 C 7 58.213552 21.786448 73 40 73 C 58.213552 73 73 58.213552 73 40 C 73 21.786448 58.213552 7 40 7 z M 40 9 C 57.132672 9 71 22.867328 71 40 C 71 57.132672 57.132672 71 40 71 C 22.867328 71 9 57.132672 9 40 C 9 22.867328 22.867328 9 40 9 z M 40 12 A 1 1 0 0 0 39 13 A 1 1 0 0 0 40 14 A 1 1 0 0 0 41 13 A 1 1 0 0 0 40 12 z M 34.732422 12.519531 A 1 1 0 0 0 33.732422 13.519531 A 1 1 0 0 0 34.732422 14.519531 A 1 1 0 0 0 35.732422 13.519531 A 1 1 0 0 0 34.732422 12.519531 z M 45.267578 12.519531 A 1 1 0 0 0 44.267578 13.519531 A 1 1 0 0 0 45.267578 14.519531 A 1 1 0 0 0 46.267578 13.519531 A 1 1 0 0 0 45.267578 12.519531 z M 29.667969 14.054688 A 1 1 0 0 0 28.667969 15.054688 A 1 1 0 0 0 29.667969 16.054688 A 1 1 0 0 0 30.667969 15.054688 A 1 1 0 0 0 29.667969 14.054688 z M 50.332031 14.054688 A 1 1 0 0 0 49.332031 15.054688 A 1 1 0 0 0 50.332031 16.054688 A 1 1 0 0 0 51.332031 15.054688 A 1 1 0 0 0 50.332031 14.054688 z M 25 16.550781 A 1 1 0 0 0 24 17.550781 A 1 1 0 0 0 25 18.550781 A 1 1 0 0 0 26 17.550781 A 1 1 0 0 0 25 16.550781 z M 55 16.550781 A 1 1 0 0 0 54 17.550781 A 1 1 0 0 0 55 18.550781 A 1 1 0 0 0 56 17.550781 A 1 1 0 0 0 55 16.550781 z M 20.908203 19.908203 A 1 1 0 0 0 19.908203 20.908203 A 1 1 0 0 0 20.908203 21.908203 A 1 1 0 0 0 21.908203 20.908203 A 1 1 0 0 0 20.908203 19.908203 z M 59.091797 19.908203 A 1 1 0 0 0 58.091797 20.908203 A 1 1 0 0 0 59.091797 21.908203 A 1 1 0 0 0 60.091797 20.908203 A 1 1 0 0 0 59.091797 19.908203 z M 41.855469 20.009766 C 41.470462 19.982969 41.074558 20.065258 40.720703 20.271484 L 38.992188 21.28125 L 38.990234 21.28125 C 38.047763 21.832507 37.721539 23.072013 38.271484 24.015625 L 51.126953 46.054688 C 50.890339 47.022455 51.002115 48.076189 51.535156 49 C 52.230359 50.20354 53.283589 50.561881 54.25 51.660156 C 55.177229 52.713695 56.060547 53.921875 56.060547 53.921875 L 56.871094 55.035156 L 57.677734 53.917969 C 57.677734 53.917969 58.550274 52.718686 59.085938 51.03125 C 59.6216 49.343814 59.846559 47.009529 58.421875 44.933594 C 57.935943 44.22518 57.259917 43.678673 56.5 43.355469 L 43.455078 20.992188 L 43.455078 20.990234 C 43.179404 20.519045 42.731197 20.202973 42.234375 20.072266 C 42.110169 20.039589 41.983804 20.018698 41.855469 20.009766 z M 41.726562 22 L 41.728516 22 L 51.498047 38.746094 L 49.769531 39.753906 L 40 23.007812 L 41.726562 22 z M 17.550781 24 A 1 1 0 0 0 16.550781 25 A 1 1 0 0 0 17.550781 26 A 1 1 0 0 0 18.550781 25 A 1 1 0 0 0 17.550781 24 z M 62.449219 24 A 1 1 0 0 0 61.449219 25 A 1 1 0 0 0 62.449219 26 A 1 1 0 0 0 63.449219 25 A 1 1 0 0 0 62.449219 24 z M 35.871094 26.25 C 35.742758 26.258749 35.616393 26.279823 35.492188 26.3125 C 34.995365 26.443207 34.547113 26.761186 34.271484 27.232422 L 34.269531 27.236328 L 22.865234 47.238281 L 21.863281 54.443359 L 27.931641 50.265625 L 28.044922 50.070312 L 39.455078 30.255859 C 40.005024 29.312247 39.6788 28.072741 38.736328 27.521484 L 37.005859 26.513672 C 36.652005 26.307442 36.2561 26.223752 35.871094 26.25 z M 36 28.240234 L 37.726562 29.248047 L 37.726562 29.25 L 37.726562 29.251953 L 36.664062 31.097656 L 34.943359 30.09375 L 36 28.240234 z M 15.054688 28.667969 A 1 1 0 0 0 14.054688 29.667969 A 1 1 0 0 0 15.054688 30.667969 A 1 1 0 0 0 16.054688 29.667969 A 1 1 0 0 0 15.054688 28.667969 z M 64.945312 28.667969 A 1 1 0 0 0 63.945312 29.667969 A 1 1 0 0 0 64.945312 30.667969 A 1 1 0 0 0 65.945312 29.667969 A 1 1 0 0 0 64.945312 28.667969 z M 33.953125 31.832031 L 35.666016 32.830078 L 26.421875 48.878906 L 24.470703 50.220703 L 24.794922 47.894531 L 33.953125 31.832031 z M 13.519531 33.732422 A 1 1 0 0 0 12.519531 34.732422 A 1 1 0 0 0 13.519531 35.732422 A 1 1 0 0 0 14.519531 34.732422 A 1 1 0 0 0 13.519531 33.732422 z M 66.480469 33.732422 A 1 1 0 0 0 65.480469 34.732422 A 1 1 0 0 0 66.480469 35.732422 A 1 1 0 0 0 67.480469 34.732422 A 1 1 0 0 0 66.480469 33.732422 z M 19 36 L 19 43 L 22.980469 43 L 24.121094 41 L 21 41 L 21 38 L 25.830078 38 L 26.970703 36 L 19 36 z M 38.455078 36 L 37.302734 38 L 44.113281 38 L 42.947266 36 L 38.455078 36 z M 54.521484 36 L 55.6875 38 L 60 38 L 60 41 L 57.4375 41 L 58.603516 43 L 62 43 L 62 36 L 54.521484 36 z M 13 39 A 1 1 0 0 0 12 40 A 1 1 0 0 0 13 41 A 1 1 0 0 0 14 40 A 1 1 0 0 0 13 39 z M 67 39 A 1 1 0 0 0 66 40 A 1 1 0 0 0 67 41 A 1 1 0 0 0 68 40 A 1 1 0 0 0 67 39 z M 52.503906 40.474609 L 54.058594 43.138672 C 53.698768 43.220917 53.341363 43.338189 53 43.535156 C 52.736062 43.687449 52.501838 43.870648 52.287109 44.070312 L 50.777344 41.482422 L 52.503906 40.474609 z M 35.576172 41 L 34.423828 43 L 47.03125 43 L 45.863281 41 L 35.576172 41 z M 13.519531 44.267578 A 1 1 0 0 0 12.519531 45.267578 A 1 1 0 0 0 13.519531 46.267578 A 1 1 0 0 0 14.519531 45.267578 A 1 1 0 0 0 13.519531 44.267578 z M 66.480469 44.267578 A 1 1 0 0 0 65.480469 45.267578 A 1 1 0 0 0 66.480469 46.267578 A 1 1 0 0 0 67.480469 45.267578 A 1 1 0 0 0 66.480469 44.267578 z M 55.121094 45.011719 C 55.246112 45.023021 55.370412 45.047946 55.492188 45.083984 C 55.979286 45.228138 56.430894 45.567032 56.773438 46.066406 C 57.750751 47.490471 57.609522 49.071718 57.179688 50.425781 C 56.983764 51.042975 56.882747 51.083005 56.667969 51.484375 C 56.31867 51.035971 56.231415 50.886838 55.75 50.339844 C 54.532411 48.956119 53.450375 48.31646 53.267578 48 C 52.709538 47.032865 53.033435 45.825289 54 45.267578 C 54.361985 45.058712 54.746038 44.977812 55.121094 45.011719 z M 15.054688 49.332031 A 1 1 0 0 0 14.054688 50.332031 A 1 1 0 0 0 15.054688 51.332031 A 1 1 0 0 0 16.054688 50.332031 A 1 1 0 0 0 15.054688 49.332031 z M 64.945312 49.332031 A 1 1 0 0 0 63.945312 50.332031 A 1 1 0 0 0 64.945312 51.332031 A 1 1 0 0 0 65.945312 50.332031 A 1 1 0 0 0 64.945312 49.332031 z M 17.550781 54 A 1 1 0 0 0 16.550781 55 A 1 1 0 0 0 17.550781 56 A 1 1 0 0 0 18.550781 55 A 1 1 0 0 0 17.550781 54 z M 62.449219 54 A 1 1 0 0 0 61.449219 55 A 1 1 0 0 0 62.449219 56 A 1 1 0 0 0 63.449219 55 A 1 1 0 0 0 62.449219 54 z M 20.908203 58.091797 A 1 1 0 0 0 19.908203 59.091797 A 1 1 0 0 0 20.908203 60.091797 A 1 1 0 0 0 21.908203 59.091797 A 1 1 0 0 0 20.908203 58.091797 z M 59.091797 58.091797 A 1 1 0 0 0 58.091797 59.091797 A 1 1 0 0 0 59.091797 60.091797 A 1 1 0 0 0 60.091797 59.091797 A 1 1 0 0 0 59.091797 58.091797 z M 25 61.449219 A 1 1 0 0 0 24 62.449219 A 1 1 0 0 0 25 63.449219 A 1 1 0 0 0 26 62.449219 A 1 1 0 0 0 25 61.449219 z M 55 61.449219 A 1 1 0 0 0 54 62.449219 A 1 1 0 0 0 55 63.449219 A 1 1 0 0 0 56 62.449219 A 1 1 0 0 0 55 61.449219 z M 29.667969 63.945312 A 1 1 0 0 0 28.667969 64.945312 A 1 1 0 0 0 29.667969 65.945312 A 1 1 0 0 0 30.667969 64.945312 A 1 1 0 0 0 29.667969 63.945312 z M 50.332031 63.945312 A 1 1 0 0 0 49.332031 64.945312 A 1 1 0 0 0 50.332031 65.945312 A 1 1 0 0 0 51.332031 64.945312 A 1 1 0 0 0 50.332031 63.945312 z M 34.732422 65.480469 A 1 1 0 0 0 33.732422 66.480469 A 1 1 0 0 0 34.732422 67.480469 A 1 1 0 0 0 35.732422 66.480469 A 1 1 0 0 0 34.732422 65.480469 z M 45.267578 65.480469 A 1 1 0 0 0 44.267578 66.480469 A 1 1 0 0 0 45.267578 67.480469 A 1 1 0 0 0 46.267578 66.480469 A 1 1 0 0 0 45.267578 65.480469 z M 40 66 A 1 1 0 0 0 39 67 A 1 1 0 0 0 40 68 A 1 1 0 0 0 41 67 A 1 1 0 0 0 40 66 z"/>
</svg>
